<?xml version="1.0" encoding="iso-8859-1"?>
<!-- Generator: Adobe Illustrator 19.0.0, SVG Export Plug-In . SVG Version: 6.00 Build 0)  -->
<svg xmlns="http://www.w3.org/2000/svg" xmlns:xlink="http://www.w3.org/1999/xlink" version="1.1" id="Capa_1" x="0px" y="0px" viewBox="0 0 512 512" style="enable-background:new 0 0 512 512;" xml:space="preserve" width="512px" height="512px">
<g>
	<g>
		<path d="M430,0H110.5C89.271,0,72,17.271,72,38.5v435c0,21.228,17.271,38.5,38.5,38.5H430c5.522,0,10-4.478,10-10V10    C440,4.477,435.522,0,430,0z M420,457H171.822c-5.522,0-10,4.478-10,10c0,5.522,4.478,10,10,10H420v15H110.5    c-10.201,0-18.5-8.299-18.5-18.5v-30.942h328V457z M420,422.558H92V38.5c0-10.201,8.299-18.5,18.5-18.5H420V422.558z" fill="#FFFFFF"/>
	</g>
</g>
<g>
	<g>
		<path d="M389.515,48.712h-267.03c-5.522,0-10,4.478-10,10v124.494c0,5.522,4.478,10,10,10h267.029c5.523,0,10-4.478,10-10V58.712    C399.515,53.189,395.037,48.712,389.515,48.712z M132.485,173.206V68.712h247.029v104.494H132.485z" fill="#FFFFFF"/>
	</g>
</g>
<g>
	<g>
		<path d="M199.153,88.058c-5.159,0-7.637,0.66-11.415,7.294l-7.894,13.797l-7.893-13.795c-3.779-6.636-6.257-7.296-11.418-7.296    c-3.625,0-7.858,2.058-7.858,7.858v52.154c0.001,3.622,4.073,5.272,7.858,5.272c3.785,0,7.859-1.65,7.859-5.272v-28.745    l6.05,11.082c1.061,2.034,2.87,3.109,5.229,3.109c2.389,0,4.276-1.057,5.46-3.057l6.165-10.532v28.144    c0,3.622,4.073,5.272,7.857,5.272c3.785,0,7.859-1.65,7.859-5.272V95.916C207.012,90.123,202.953,88.058,199.153,88.058z" fill="#FFFFFF"/>
	</g>
</g>
<g>
	<g>
		<path d="M251.734,139.35h-21.969v-12.386h11.796c3.405,0,5.186-3.129,5.186-6.22c0-3.705-2.181-6.393-5.186-6.393h-11.796v-12.3    h21.969c3.054,0,5.186-2.912,5.186-7.082c0-3.327-1.623-6.909-5.186-6.909h-30.689c-3.369,0-6.996,1.649-6.996,5.271v54.74    c0.001,3.621,3.627,5.271,6.996,5.271h30.689c3.563,0,5.186-3.582,5.186-6.909C256.92,142.263,254.788,139.35,251.734,139.35z" fill="#FFFFFF"/>
	</g>
</g>
<g>
	<g>
		<path d="M298.971,88.059c-4.773,0-7.858,2.036-7.858,5.186v24.702l-11.825-22.555c-3.489-6.701-5.766-7.334-10.92-7.334    c-3.911,0-7.857,1.63-7.857,5.271v54.74c-0.001,3.623,4.072,5.273,7.857,5.273c3.785,0,7.859-1.65,7.859-5.272v-24.887    l14.25,25.948c2.028,3.733,5.605,4.211,8.494,4.211c3.785,0,7.859-1.65,7.859-5.272V93.245    C306.83,90.095,303.745,88.059,298.971,88.059z" fill="#FFFFFF"/>
	</g>
</g>
<g>
	<g>
		<path d="M351.465,88.059c-4.774,0-7.859,2.036-7.859,5.186v39.137c0,5.036-2.336,7.485-7.141,7.485    c-4.806,0-7.142-2.449-7.142-7.485V93.245c0-3.582-3.947-5.186-7.857-5.186c-4.774,0-7.859,2.036-7.859,5.186v39.137    c0.001,13.849,8.119,21.478,22.859,21.478s22.858-7.628,22.858-21.478V93.245C359.324,89.663,355.377,88.059,351.465,88.059z" fill="#FFFFFF"/>
	</g>
</g>
<g>
	<g>
		<path d="M369.02,228.695h-23.124v-4.373c0-5.523-4.478-10-10-10H176.105c-5.523,0-10,4.477-10,10v80.654    c0,20.474,8.576,38.983,22.323,52.124h-45.606c-5.522,0-10,4.477-10,10c0,5.522,4.478,10,10,10h196.376c5.522,0,10-4.478,10-10    c0-5.523-4.478-10-10-10h-15.626c7.866-7.518,14.038-16.794,17.88-27.189c17.426-2.98,37.568-15.317,37.568-56.39v-34.826    C379.02,233.173,374.542,228.695,369.02,228.695z M325.896,304.976c0,28.741-23.383,52.124-52.124,52.124h-35.543    c-28.741,0-52.124-23.383-52.124-52.124v-70.654h139.791V304.976z M359.02,273.52c0,21.46-6.026,30.325-13.174,34.162    c0.033-0.898,0.05-1.801,0.05-2.707v-56.281h13.124V273.52z" fill="#FFFFFF"/>
	</g>
</g>
<g>
	<g>
		<path d="M309.608,281.148c-0.941-17.61-15.21-31.405-32.484-31.405c-9.195,0-16.212,4.758-20.989,9.132    c-4.753-4.37-11.867-9.132-21.262-9.132c-17.274,0-31.542,13.795-32.481,31.402c-0.567,10.557,3.464,17.993,6.544,22.666    c5.123,7.774,17.78,18.522,21.538,21.631c17.783,14.714,23.041,14.714,25.567,14.714c2.555,0,7.87,0,25.568-14.693    c7.685-6.38,17.357-15.42,21.461-21.659C306.147,299.125,310.173,291.685,309.608,281.148z M286.36,292.815    c-4.464,6.787-22.933,22.493-30.3,26.702c-7.429-4.247-25.982-19.969-30.425-26.711c-2.523-3.827-3.472-6.895-3.273-10.591    c0.367-6.877,5.979-12.472,12.511-12.472c4.604,0,8.758,4.729,11.24,7.556c2.207,2.513,4.954,5.641,9.888,5.641    c4.896,0,7.697-3.058,10.17-5.755c2.552-2.783,6.821-7.441,10.953-7.441c6.532,0,12.146,5.595,12.514,12.474    C289.837,285.952,288.918,288.924,286.36,292.815z" fill="#FFFFFF"/>
	</g>
</g>
<g>
	<g>
		<circle cx="378.2" cy="367.1" r="9.999" fill="#FFFFFF"/>
	</g>
</g>
<g>
	<g>
		<circle cx="132.82" cy="467" r="9.998" fill="#FFFFFF"/>
	</g>
</g>
<g>
</g>
<g>
</g>
<g>
</g>
<g>
</g>
<g>
</g>
<g>
</g>
<g>
</g>
<g>
</g>
<g>
</g>
<g>
</g>
<g>
</g>
<g>
</g>
<g>
</g>
<g>
</g>
<g>
</g>
</svg>
